<svg xmlns="http://www.w3.org/2000/svg" viewBox="0 0 15.6 15.6" fill="currentColor">
  <path d="M7.8,3.6c.44,0,.8-.36.8-.8V.8c0-.44-.36-.8-.8-.8s-.8.36-.8.8v2c0,.44.36.8.8.8Z"/>
  <path d="M3.7,4.83c.15.15.35.23.57.23s.41-.08.57-.23c.31-.31.31-.82,0-1.13l-1.41-1.41c-.15-.15-.35-.23-.57-.23s-.41.08-.57.23c-.31.31-.31.82,0,1.13l1.41,1.41Z"/>
  <path d="M3.6,7.8c0-.44-.36-.8-.8-.8H.8c-.44,0-.8.36-.8.8s.36.8.8.8h2c.44,0,.8-.36.8-.8Z"/>
  <path d="M4.26,10.54c-.21,0-.41.08-.57.23l-1.41,1.41c-.15.15-.23.35-.23.57,0,.21.08.42.23.57.15.15.35.23.57.23s.41-.08.57-.23l1.41-1.42c.31-.31.31-.82,0-1.13-.15-.15-.35-.23-.57-.23Z"/>
  <path d="M14.8,7h-2c-.44,0-.8.36-.8.8s.36.8.8.8h2c.44,0,.8-.36.8-.8s-.36-.8-.8-.8Z"/>
  <path d="M11.33,5.06c.21,0,.41-.08.57-.23l1.42-1.41c.15-.15.23-.35.23-.57s-.08-.41-.23-.57c-.15-.15-.35-.23-.57-.23s-.42.08-.57.23l-1.42,1.41c-.31.31-.31.82,0,1.13.15.15.35.23.57.23Z"/>
  <path d="M7.8,12c-.44,0-.8.36-.8.8v2c0,.44.36.8.8.8s.8-.36.8-.8v-2c0-.44-.36-.8-.8-.8Z"/>
  <path d="M11.9,10.77c-.15-.15-.35-.23-.57-.23s-.41.08-.57.23c-.31.31-.31.82,0,1.13l1.41,1.42c.15.15.35.23.57.23s.41-.08.57-.23.23-.35.23-.57-.08-.42-.23-.56l-1.42-1.42Z"/>
  <circle cx="7.8" cy="7.8" r="3.98"/>
</svg>
